<svg width="1916" height="645" viewBox="0 0 1916 645" fill="none" xmlns="http://www.w3.org/2000/svg">
<path d="M0 0H1923V632H0V0Z" fill="#FAFAFF"/>
<g clip-path="url(#clip0_219_332)">
<path d="M397.295 546.497C364.962 544.538 341.076 541.984 312.768 532.068L295.998 536.802L283.305 545.432C319.32 560.08 358.72 568.478 400.986 570.56L405.751 570.753L409.364 567.639C440.81 540.105 466.122 509.517 485.157 476.17L455.882 484.398C440.014 509.098 420.855 525.422 397.295 546.497Z" fill="#2152FF" fill-opacity="0.04"/>
<path d="M476.145 108.832L471.449 100.329C470.347 100.713 354.745 49.6339 238.009 85.0161L237.97 84.9058L237.529 85.0595L236.978 85.2517L236.427 85.4439L235.986 85.5976L236.025 85.7078C122.594 130.572 61.8946 242.994 60.8307 243.489L62.4395 253.068C62.8878 256.127 75.3871 329.921 123.034 406.3C137.761 430.102 155.085 452.132 174.56 472.176C182.198 479.9 189.748 454.391 177.781 440.633C165.175 426.109 153.849 410.643 143.62 394.424C107.681 337.087 91.748 274.012 86.9079 252.328C96.8074 233.914 145.306 157.773 245.781 110.5C353.795 85.2076 437.246 115.345 456.409 123.503C466.061 143.386 492.687 202.733 500.186 269.986C502.329 288.9 502.996 307.835 502.187 326.789C501.334 345.264 523.321 360.104 524.458 348.826C527.145 321.426 526.912 293.808 523.693 266.489C513.746 176.966 477.695 111.507 476.145 108.832Z" fill="#2152FF" fill-opacity="0.04"/>
<path d="M293.479 238.798C292.266 239.221 291.125 239.495 289.913 239.918C288.7 240.341 287.488 240.763 286.424 241.258C287.526 240.874 288.777 240.561 289.918 240.287L290.249 240.172C291.202 239.716 292.304 239.331 293.479 238.798Z" fill="#2152FF" fill-opacity="0.04"/>
<path d="M288.419 235.987C225.916 257.778 192.963 326.026 214.759 388.541C223.062 412.357 238.63 432.897 259.357 447.311C266.171 443.452 276.251 440.803 285.893 435.834C283.847 432.095 280.146 426.09 278.206 421.943C276.189 417.577 276.856 412.398 280.018 408.699C284.74 403.095 289.611 397.564 294.334 391.96C297.241 388.597 301.65 387.06 306.018 387.886C315.311 389.716 324.713 391.508 334.078 393.19C338.446 394.016 341.996 397.107 343.456 401.297L349.607 418.938L354.419 417.136L348.345 399.716C346.884 395.526 347.744 390.898 350.651 387.535C356.94 380.396 363.19 373.147 369.331 365.936C372.238 362.573 376.647 361.036 381.015 361.863C388.16 363.205 395.453 364.62 402.635 366.072C407.411 367.004 411.115 370.536 412.25 375.21C413.149 378.853 414.484 387.291 415.196 390.753C424.697 388.925 433.657 382.709 443.244 381.84C461.382 318.262 424.545 251.964 360.937 233.705C337.105 227.051 311.788 227.839 288.419 235.987ZM322.723 233.672C339.77 232.923 356.796 236.014 372.579 242.63C370.351 244.396 368.162 246.272 366.154 247.961C354.488 245.351 342.468 243.853 330.464 243.463C329.869 243.176 329.236 242.778 328.751 242.453C327.047 239.337 325.012 236.337 322.723 233.672ZM241.039 272.786C246.71 266.357 253.091 260.546 260 255.54C259.974 259.012 260.246 262.627 260.738 266.165C260.561 266.722 260.202 267.465 260.025 268.021C250.865 275.79 242.381 284.436 234.867 293.734C232.244 293.659 229.512 293.622 226.52 293.552C230.589 286.074 235.589 279.138 241.039 272.786ZM229.561 409.72C220.762 395.476 215.188 379.488 213.224 362.861C215.933 363.895 218.604 364.819 221.275 365.742C221.98 365.991 222.58 366.648 222.7 367.348C222.739 367.458 222.816 367.678 222.854 367.789C223.661 370.104 224.469 372.419 225.237 374.625C226.275 377.601 227.313 380.578 228.351 383.555L228.505 383.996C229.543 386.973 230.581 389.95 231.618 392.927C232.003 394.03 232.349 395.022 232.733 396.125C233.348 397.889 233.963 399.653 234.727 401.489C232.955 404.209 231.222 407.039 229.561 409.72ZM292.572 376.622C294.032 380.812 293.173 385.44 290.266 388.803C285.615 394.258 280.926 399.602 276.203 405.206C272.932 408.943 267.784 410.491 263.037 408.931C256.472 406.768 250.387 404.561 244.483 402.168C241.179 400.847 238.67 398.259 237.407 394.99L237.214 394.439C236.868 393.446 236.522 392.454 236.176 391.462C235.1 388.374 234.024 385.287 232.986 382.31C231.948 379.333 230.833 376.136 229.795 373.159C229.449 372.167 229.065 371.064 228.719 370.072C228.681 369.962 228.642 369.851 228.565 369.631C227.412 366.323 227.841 362.588 229.646 359.609C232.781 354.064 236.176 348.552 239.973 342.777C242.721 338.604 247.677 336.505 252.601 337.509C259.635 338.89 266.779 340.232 273.813 341.613C278.182 342.44 281.732 345.53 283.192 349.72C286.306 358.651 289.458 367.692 292.572 376.622ZM307.52 298.576C308.981 302.766 308.121 307.393 305.176 310.646C298.887 317.785 292.636 325.034 286.496 332.245C283.589 335.608 279.179 337.146 274.811 336.319C267.667 334.976 260.374 333.562 253.191 332.109C248.416 331.177 244.712 327.646 243.577 322.972C241.816 315.795 240.469 309.093 239.529 302.496C239.037 298.957 240.022 295.399 242.311 292.746C248.016 286.058 254.171 279.955 260.773 274.067C263.144 272.004 266.192 270.817 269.443 270.921C276.313 271.122 283.26 271.544 290.317 271.928C295.231 272.193 299.596 275.494 301.211 280.125L307.52 298.576ZM349.918 310.257C340.626 308.427 331.223 306.635 321.859 304.953C317.491 304.127 313.941 301.036 312.519 296.957L306.138 278.654C304.485 273.913 305.89 268.724 309.574 265.461C314.753 260.812 320.08 256.234 325.297 251.695C327.669 249.631 330.755 248.555 334.044 248.769C342.837 249.166 351.491 250.229 360.117 251.921C363.56 252.575 366.543 254.75 368.358 257.827C371.613 263.617 374.835 269.666 377.918 276.382C379.935 280.749 379.268 285.928 376.068 289.516C371.346 295.12 366.513 300.762 361.752 306.255C358.586 309.585 354.176 311.122 349.918 310.257ZM423 316.681C423.999 319.548 424.999 322.415 425.998 325.281C426.382 326.384 426.767 327.487 427.151 328.589L427.19 328.699C428.343 332.007 427.914 335.743 426.22 338.683C423.084 344.228 419.689 349.739 415.892 355.515C413.144 359.688 408.188 361.787 403.264 360.783C396.23 359.402 389.086 358.06 382.052 356.679C377.684 355.852 374.134 352.762 372.673 348.572C369.669 339.603 366.479 330.452 363.255 321.559C361.794 317.369 362.653 312.742 365.561 309.379C370.212 303.924 374.862 298.469 379.623 292.976C382.895 289.238 388.042 287.691 392.79 289.251C399.244 291.452 405.44 293.62 411.343 296.014C414.647 297.335 417.157 299.923 418.31 303.23L418.464 303.671C418.81 304.664 419.194 305.766 419.54 306.758C420.539 309.625 421.539 312.492 422.538 315.358L423 316.681ZM442.531 335.469C439.822 334.435 437.151 333.512 434.59 332.55C433.885 332.301 433.434 331.716 433.203 331.054C433.05 330.613 432.968 330.024 432.704 329.621C432.012 327.637 431.32 325.652 430.628 323.667C428.585 317.455 426.471 311.39 424.208 305.255C423.901 304.372 423.593 303.49 423.286 302.608C422.594 300.624 421.94 298.749 421.138 296.803C422.8 294.122 424.461 291.44 426.194 288.61C434.993 302.855 440.567 318.842 442.531 335.469Z" fill="#2152FF" fill-opacity="0.04"/>
<path d="M384.711 512.179C317.728 535.656 246.947 546.113 176.088 542.871L177.379 532.033L186.739 450.371C243.704 452.769 300.665 444.162 354.531 425.259C408.473 406.576 458.328 377.941 501.565 340.608L532.449 371.39L567.377 406.326C513.711 453.107 451.81 489.033 384.711 512.179ZM387.902 521.33C459.482 496.498 525.513 457.525 581.746 406.758C555.204 380.274 528.662 353.791 502.23 327.269C458.396 366.788 407.013 397.068 351.345 416.477C295.678 435.885 236.607 444.114 177.704 440.413C173.38 477.657 169.057 514.902 164.844 552.108C240.412 556.8 316.399 546.383 387.902 521.33Z" fill="#2152FF" fill-opacity="0.04"/>
<path d="M300.551 457.31C302.283 465.115 303.259 468.979 304.953 476.674C305.342 478.146 305.66 479.766 305.829 481.315C305.86 483.53 304.783 485.761 302.991 487.004C301.783 487.796 300.499 488.367 299.21 488.569C297.7 488.848 296.113 488.907 294.521 488.596C293.226 488.429 292.037 487.855 291.102 486.944C290.243 486.254 289.676 485.339 289.292 484.236C288.946 483.244 288.436 481.072 287.69 477.87C286.156 470.985 285.333 467.562 283.798 460.677L291.199 459.21C293.129 467.936 294.148 472.279 296.188 480.966C296.347 481.777 296.616 482.548 296.885 483.32C297.111 483.613 297.408 483.756 297.887 483.713C298.256 483.708 298.621 483.334 298.615 482.964C298.528 482.005 298.441 481.046 298.134 480.164C296.243 471.549 295.261 467.316 293.26 458.739L300.551 457.31Z" fill="#2152FF" fill-opacity="0.04"/>
<path d="M320.274 457.853C320.071 461.881 320.063 463.986 319.971 467.976C322.923 473.253 324.474 475.927 327.426 481.205L320.73 482.921C318.757 479.034 317.845 477.126 315.833 473.128C316.886 477.213 317.506 479.346 318.559 483.431L311.494 485.152L303.935 456.377L311 454.656C312.322 459.513 312.909 461.905 314.231 466.761L314.609 459.334L320.274 457.853Z" fill="#2152FF" fill-opacity="0.04"/>
<path d="M329.836 455.137C330.039 456.427 330.231 456.978 330.433 458.268C330.805 455.789 331.854 454.187 333.838 453.495L336.242 461.808C335.211 462.044 334.368 462.461 333.601 463.099C333.165 463.622 332.878 464.217 332.999 464.917C333.278 466.427 333.557 467.938 334.057 469.371L336.768 478.566L329.78 480.508L322.848 457.079L329.836 455.137Z" fill="#2152FF" fill-opacity="0.04"/>
<path d="M345.488 460.315L339.056 462.434L338.518 460.891C338.018 459.457 337.778 458.057 337.757 456.58C337.924 455.286 338.498 454.096 339.298 453.199C340.462 451.927 342 451.02 343.692 450.554C345.528 449.79 347.484 449.727 349.335 450.071C350.706 450.458 351.752 451.33 352.544 452.538C353.648 454.997 354.643 457.495 355.417 460.069C356.921 464.738 357.728 467.054 359.233 471.723L352.58 473.919C352.273 473.037 352.157 472.706 351.85 471.824C351.788 472.711 351.319 473.493 350.811 474.165C350.193 474.875 349.46 475.254 348.689 475.523C347.476 475.946 346.22 475.889 344.997 475.573C343.774 475.258 342.795 473.868 341.988 471.552L341.335 469.678C340.802 468.504 340.709 467.175 340.986 465.842C341.853 464.427 342.945 463.304 344.224 462.364C346.232 460.675 347.142 459.739 347.247 459.331C347.237 458.593 347.155 458.003 346.814 457.38C346.655 456.57 346.276 455.836 345.786 455.141C345.561 454.849 345.153 454.744 344.712 454.898C344.271 455.051 343.979 455.277 343.984 455.646C344.143 456.456 344.302 457.267 344.609 458.149C344.95 458.772 345.142 459.323 345.488 460.315ZM348.698 462.783C348.08 463.493 347.577 464.534 347.405 465.459C347.454 466.308 347.613 467.118 347.92 468C348.079 468.81 348.459 469.544 348.948 470.239C349.174 470.531 349.691 470.598 350.022 470.483C350.463 470.329 350.645 470.142 350.75 469.734C350.74 468.996 350.471 468.224 350.24 467.562L348.698 462.783Z" fill="#2152FF" fill-opacity="0.04"/>
<path d="M359.897 439.587L361.166 443.226L354.149 445.795C353.65 444.362 353.38 443.59 352.881 442.157L359.897 439.587ZM361.666 444.659C365.005 453.882 366.619 458.513 369.92 467.626L362.904 470.196C359.564 460.973 357.95 456.342 354.649 447.229L361.666 444.659Z" fill="#2152FF" fill-opacity="0.04"/>
<path d="M371.84 440.864C372.148 441.746 372.263 442.077 372.571 442.959C372.743 442.033 373.063 441.18 373.642 440.359C374.26 439.649 374.955 439.16 375.799 438.742C376.752 438.286 377.97 438.232 378.934 438.515C379.898 438.797 380.569 439.305 381.207 440.072C382.038 441.39 382.648 442.785 383.147 444.218C385.636 450.646 386.861 453.805 389.311 460.124L382.592 462.837C380.142 456.519 378.917 453.36 376.467 447.042C376.121 446.049 375.665 445.095 375.247 444.252C375.021 443.959 374.614 443.854 374.173 444.008C373.732 444.162 373.478 444.498 373.522 444.977C373.796 446.118 374.142 447.11 374.526 448.213C376.899 454.311 378.124 457.47 380.497 463.567L373.778 466.281C370.219 457.134 368.422 452.691 364.862 443.544L371.84 440.864Z" fill="#2152FF" fill-opacity="0.04"/>
<path d="M388.279 428.084C388.889 429.479 389.158 430.251 389.768 431.646L382.905 434.657L381.416 431.095L388.279 428.084ZM390.378 433.041C394.158 442.111 396.065 446.516 399.845 455.586L392.982 458.597C389.202 449.527 387.295 445.122 383.515 436.052L390.378 433.041Z" fill="#2152FF" fill-opacity="0.04"/>
<path d="M403.325 437.554L397.162 440.445C396.821 439.822 396.745 439.601 396.514 438.939C395.794 437.583 395.443 436.221 395.274 434.673C395.33 433.416 395.756 432.155 396.517 431.148C398.84 428.236 402.362 426.637 406.131 426.807C407.464 427.084 408.692 427.769 409.445 428.866C410.842 431.1 412.057 433.521 413.051 436.018L418.08 447.249L411.696 450.217L410.745 448.199C410.684 449.086 410.474 449.901 410.004 450.683C409.497 451.355 408.84 451.955 407.997 452.372C406.823 452.905 405.644 453.069 404.349 452.902C403.055 452.735 401.965 451.384 400.938 449.145C400.558 448.412 400.443 448.081 400.064 447.348C399.42 446.212 399.108 444.96 399.236 443.555C399.954 442.068 400.859 440.764 402.061 439.602C403.771 437.77 404.715 436.575 404.71 436.206C404.589 435.506 404.469 434.806 404.128 434.183C403.859 433.411 403.369 432.716 402.88 432.021C402.544 431.767 402.136 431.662 401.844 431.887C401.403 432.041 401.149 432.377 401.265 432.708C401.424 433.518 401.693 434.29 402.11 435.133L403.325 437.554ZM406.75 439.575C406.17 440.396 405.888 441.36 405.865 442.357C406.024 443.167 406.332 444.049 406.711 444.783C406.98 445.555 407.47 446.249 407.959 446.944C408.295 447.198 408.664 447.193 409.105 447.04C409.436 446.924 409.689 446.588 409.684 446.219C409.526 445.409 409.295 444.747 408.916 444.014C407.97 442.365 407.552 441.522 406.75 439.575Z" fill="#2152FF" fill-opacity="0.04"/>
<path d="M417.482 420.005C417.79 420.887 418.015 421.179 418.323 422.061C418.346 421.064 418.667 420.21 419.097 419.318C419.567 418.536 420.333 417.898 421.066 417.519C421.982 416.952 423.161 416.788 424.196 416.922C425.122 417.094 425.904 417.563 426.503 418.22C427.406 419.389 428.236 420.707 428.846 422.102C431.847 428.228 433.403 431.272 436.404 437.398L430.026 440.735C427.063 434.719 425.507 431.675 422.506 425.549C422.05 424.595 421.632 423.752 420.956 422.875C420.73 422.582 420.212 422.516 419.92 422.741C419.479 422.895 419.264 423.341 419.307 423.82C419.692 424.923 420.038 425.915 420.642 426.941C423.567 432.847 425.084 435.78 428.008 441.686L421.63 445.022C417.337 436.255 415.1 431.965 410.807 423.198L417.482 420.005Z" fill="#2152FF" fill-opacity="0.04"/>
<path d="M252.073 503.262L262.805 502.118L263.326 506.994L258.931 507.463L259.424 512.084L263.337 511.667L263.832 516.303L259.919 516.72L261.011 526.955L254.674 527.631L252.073 503.262Z" fill="#2152FF" fill-opacity="0.04"/>
<path d="M282.075 511.143L282.78 516.002C283.039 517.787 283.139 519.111 283.081 519.974C283.022 520.828 282.75 521.661 282.268 522.474C281.784 523.277 281.104 523.92 280.227 524.403C279.359 524.875 278.327 525.198 277.131 525.371C275.795 525.565 274.642 525.584 273.673 525.43C272.703 525.265 271.916 524.926 271.312 524.413C270.717 523.889 270.249 523.224 269.908 522.418C269.566 521.603 269.273 520.352 269.028 518.668L268.291 513.583C268.023 511.739 268.014 510.27 268.262 509.175C268.511 508.081 269.108 507.144 270.053 506.366C270.999 505.588 272.279 505.081 273.894 504.847C275.25 504.651 276.441 504.687 277.467 504.955C278.502 505.212 279.331 505.627 279.953 506.198C280.575 506.769 281.031 507.385 281.32 508.046C281.619 508.705 281.871 509.737 282.075 511.143ZM275.817 510.523C275.669 509.506 275.522 508.876 275.375 508.633C275.226 508.38 274.972 508.279 274.613 508.331C274.254 508.383 274.035 508.552 273.954 508.839C273.872 509.115 273.905 509.762 274.052 510.779L275.351 519.736C275.487 520.673 275.636 521.277 275.798 521.549C275.958 521.811 276.212 521.916 276.561 521.866C276.92 521.814 277.135 521.65 277.208 521.375C277.29 521.099 277.268 520.532 277.144 519.674L275.817 510.523Z" fill="#2152FF" fill-opacity="0.04"/>
<path d="M301.306 507.733L302.189 512.572C302.514 514.349 302.663 515.671 302.636 516.537C302.608 517.394 302.367 518.238 301.913 519.069C301.458 519.891 300.8 520.56 299.941 521.076C299.089 521.58 298.067 521.94 296.876 522.158C295.546 522.4 294.393 522.462 293.417 522.342C292.439 522.213 291.639 521.902 291.016 521.411C290.401 520.908 289.908 520.259 289.538 519.465C289.165 518.661 288.826 517.42 288.52 515.742L287.596 510.68C287.261 508.843 287.198 507.372 287.407 506.267C287.615 505.163 288.179 504.203 289.097 503.39C290.016 502.576 291.279 502.022 292.887 501.729C294.237 501.483 295.431 501.475 296.468 501.707C297.513 501.926 298.358 502.311 299.002 502.86C299.646 503.409 300.124 504.009 300.438 504.66C300.762 505.309 301.051 506.333 301.306 507.733ZM295.019 507.341C294.834 506.328 294.664 505.703 294.507 505.465C294.349 505.217 294.091 505.125 293.734 505.19C293.377 505.256 293.163 505.433 293.093 505.723C293.021 506.003 293.077 506.649 293.262 507.661L294.889 516.581C295.059 517.514 295.23 518.114 295.402 518.38C295.572 518.636 295.831 518.733 296.178 518.669C296.535 518.604 296.745 518.432 296.807 518.154C296.879 517.875 296.837 517.308 296.682 516.454L295.019 507.341Z" fill="#2152FF" fill-opacity="0.04"/>
<path d="M311.155 495.746L311.817 498.84L313.43 498.495L314.095 501.604L312.481 501.948L314.729 512.458C315.005 513.75 315.223 514.457 315.383 514.578C315.553 514.696 316.126 514.651 317.103 514.442L317.781 517.61L315.368 518.125C314.006 518.417 313.023 518.57 312.417 518.586C311.81 518.592 311.241 518.44 310.71 518.131C310.177 517.811 309.801 517.401 309.58 516.902C309.358 516.392 309.038 515.16 308.62 513.206L306.487 503.23L305.199 503.505L304.534 500.397L305.822 500.122L305.16 497.028L311.155 495.746Z" fill="#2152FF" fill-opacity="0.04"/>
<path d="M321.852 491.508L323.233 497.138C323.584 496.45 324.025 495.895 324.555 495.474C325.093 495.04 325.715 494.737 326.421 494.564C327.234 494.365 327.971 494.319 328.631 494.427C329.292 494.535 329.835 494.781 330.262 495.165C330.688 495.549 330.985 495.954 331.152 496.381C331.329 496.805 331.594 497.737 331.947 499.178L334.104 507.969C334.455 509.4 334.619 510.492 334.596 511.246C334.58 511.988 334.283 512.705 333.705 513.397C333.124 514.08 332.349 514.54 331.379 514.778C330.683 514.949 329.994 514.957 329.312 514.802C328.639 514.645 327.979 514.324 327.33 513.838L327.308 515.402L321.751 516.765L315.913 492.964L321.852 491.508ZM326.073 500.899C325.825 499.89 325.601 499.249 325.399 498.976C325.194 498.694 324.906 498.598 324.534 498.69C324.171 498.779 323.969 498.973 323.929 499.274C323.886 499.565 323.998 500.255 324.265 501.343L326.327 509.752C326.585 510.8 326.808 511.457 326.998 511.722C327.197 511.985 327.478 512.072 327.841 511.983C328.213 511.892 328.416 511.681 328.45 511.351C328.493 511.018 328.372 510.274 328.089 509.117L326.073 500.899Z" fill="#2152FF" fill-opacity="0.04"/>
<path d="M343.307 498.534L337.789 500.104L337.421 498.808C336.996 497.314 336.838 496.115 336.949 495.213C337.066 494.298 337.556 493.383 338.418 492.466C339.279 491.549 340.54 490.855 342.2 490.383C344.19 489.817 345.79 489.744 347.001 490.166C348.209 490.577 349.062 491.269 349.558 492.24C350.052 493.201 350.753 495.278 351.662 498.471L354.42 508.167L348.699 509.795L348.21 508.077C348.047 508.868 347.729 509.52 347.255 510.033C346.789 510.532 346.163 510.894 345.377 511.118C344.348 511.411 343.32 511.393 342.293 511.067C341.273 510.727 340.486 509.582 339.931 507.631L339.479 506.044C339.068 504.598 339.016 503.548 339.323 502.894C339.63 502.24 340.587 501.307 342.193 500.095C343.909 498.788 344.798 497.984 344.859 497.684C344.921 497.383 344.837 496.83 344.608 496.024C344.32 495.015 344.056 494.382 343.815 494.125C343.581 493.856 343.29 493.771 342.94 493.87C342.542 493.984 342.332 494.185 342.31 494.475C342.284 494.755 342.425 495.433 342.732 496.511L343.307 498.534ZM345.925 500.654C345.179 501.611 344.795 502.345 344.772 502.855C344.759 503.362 344.877 504.052 345.126 504.926C345.41 505.926 345.657 506.553 345.866 506.808C346.085 507.061 346.388 507.132 346.776 507.021C347.145 506.917 347.351 506.737 347.394 506.484C347.445 506.218 347.332 505.599 347.056 504.629L345.925 500.654Z" fill="#2152FF" fill-opacity="0.04"/>
<path d="M358.857 481.128L366.231 504.5L360.226 506.395L352.852 483.023L358.857 481.128Z" fill="#2152FF" fill-opacity="0.04"/>
<path d="M368.996 477.766L376.849 500.981L370.884 502.999L363.03 479.784L368.996 477.766Z" fill="#2152FF" fill-opacity="0.04"/>
<path d="M392.029 469.261L393.791 473.838L390.259 475.198L397.304 493.491L391.357 495.781L384.313 477.488L380.795 478.842L379.033 474.265L392.029 469.261Z" fill="#2152FF" fill-opacity="0.04"/>
<path d="M404.485 477.258L399.182 479.471L398.662 478.226C398.062 476.789 397.764 475.616 397.767 474.705C397.776 473.781 398.155 472.812 398.904 471.799C399.653 470.785 400.825 469.945 402.421 469.279C404.333 468.481 405.917 468.22 407.171 468.496C408.422 468.763 409.351 469.35 409.96 470.257C410.565 471.155 411.508 473.138 412.789 476.207L416.678 485.527L411.179 487.823L410.49 486.172C410.421 486.978 410.181 487.664 409.771 488.23C409.366 488.782 408.786 489.216 408.03 489.531C407.041 489.944 406.017 490.049 404.957 489.845C403.902 489.628 402.984 488.581 402.201 486.706L401.565 485.181C400.984 483.791 400.808 482.752 401.037 482.066C401.265 481.379 402.106 480.337 403.561 478.941C405.114 477.439 405.903 476.534 405.929 476.228C405.954 475.922 405.805 475.381 405.482 474.607C405.077 473.637 404.74 473.038 404.47 472.811C404.205 472.571 403.905 472.521 403.569 472.661C403.187 472.821 403.001 473.046 403.013 473.337C403.021 473.618 403.241 474.277 403.673 475.313L404.485 477.258ZM407.339 479.057C406.711 480.097 406.416 480.872 406.453 481.382C406.5 481.888 406.699 482.561 407.049 483.401C407.45 484.362 407.77 484.957 408.008 485.186C408.255 485.412 408.566 485.446 408.939 485.291C409.293 485.143 409.477 484.94 409.49 484.683C409.509 484.412 409.323 483.81 408.934 482.877L407.339 479.057Z" fill="#2152FF" fill-opacity="0.04"/>
<path d="M417.714 458.171L427.916 480.454L422.19 483.075L411.989 460.793L417.714 458.171Z" fill="#2152FF" fill-opacity="0.04"/>
<path d="M440.581 463.568L433.484 467.077L435.409 470.971C435.812 471.785 436.13 472.281 436.364 472.458C436.598 472.635 436.882 472.641 437.217 472.476C437.633 472.27 437.833 471.98 437.816 471.605C437.805 471.217 437.577 470.575 437.135 469.679L435.961 467.304L441.158 464.735L441.815 466.065C442.365 467.178 442.716 468.069 442.866 468.737C443.025 469.401 443.015 470.2 442.835 471.134C442.654 472.067 442.251 472.902 441.625 473.64C441.003 474.364 440.096 475.021 438.901 475.611C437.743 476.183 436.638 476.521 435.586 476.625C434.534 476.728 433.617 476.614 432.833 476.28C432.054 475.934 431.397 475.459 430.863 474.857C430.324 474.245 429.724 473.27 429.062 471.931L426.466 466.679C425.688 465.105 425.288 463.76 425.266 462.646C425.24 461.522 425.592 460.481 426.323 459.523C427.05 458.556 428.041 457.761 429.299 457.14C430.837 456.38 432.249 456.048 433.534 456.144C434.825 456.226 435.908 456.653 436.785 457.424C437.666 458.182 438.538 459.434 439.401 461.18L440.581 463.568ZM433.637 463.354L432.986 462.038C432.526 461.106 432.178 460.529 431.945 460.307C431.711 460.084 431.441 460.049 431.133 460.201C430.753 460.389 430.576 460.623 430.602 460.903C430.623 461.174 430.884 461.816 431.385 462.829L432.036 464.145L433.637 463.354Z" fill="#2152FF" fill-opacity="0.04"/>
<path d="M446.238 448.844L447.027 450.517C447.065 449.658 447.277 448.917 447.662 448.294C448.051 447.657 448.614 447.139 449.349 446.739C450.271 446.238 451.143 446.045 451.964 446.161C452.786 446.278 453.461 446.623 453.991 447.196C454.516 447.76 455.198 448.814 456.037 450.356L462.76 462.724L457.388 465.645L450.744 453.424C450.084 452.209 449.641 451.491 449.417 451.268C449.192 451.045 448.899 451.033 448.535 451.231C448.154 451.438 447.999 451.723 448.07 452.087C448.136 452.441 448.531 453.283 449.254 454.613L455.739 466.541L450.367 469.463L440.773 451.816L446.238 448.844Z" fill="#2152FF" fill-opacity="0.04"/>
<path d="M462.22 436.751L463.819 439.482L465.242 438.648L466.848 441.391L465.425 442.225L470.854 451.499C471.522 452.64 471.951 453.243 472.141 453.307C472.339 453.366 472.869 453.143 473.731 452.639L475.368 455.434L473.239 456.681C472.037 457.384 471.151 457.839 470.582 458.044C470.007 458.24 469.419 458.275 468.818 458.147C468.212 458.011 467.726 457.74 467.36 457.334C466.989 456.92 466.298 455.851 465.289 454.127L460.134 445.322L458.998 445.988L457.392 443.245L458.529 442.579L456.93 439.849L462.22 436.751Z" fill="#2152FF" fill-opacity="0.04"/>
<path d="M482.194 435.147L477.603 438.025L477.024 437.102C476.531 436.315 476.173 435.849 475.951 435.702C475.731 435.542 475.442 435.575 475.083 435.8C474.792 435.982 474.636 436.217 474.614 436.505C474.586 436.784 474.693 437.116 474.934 437.501C475.261 438.022 475.537 438.386 475.76 438.591C475.987 438.782 476.372 438.91 476.913 438.976C477.463 439.036 478.476 438.99 479.953 438.839C481.919 438.63 483.34 438.704 484.218 439.059C485.095 439.414 485.923 440.211 486.7 441.451C487.568 442.836 488.045 443.996 488.131 444.931C488.211 445.857 487.949 446.778 487.343 447.693C486.741 448.595 485.846 449.418 484.658 450.163C483.341 450.989 482.084 451.491 480.886 451.67C479.697 451.844 478.707 451.69 477.917 451.209C477.127 450.728 476.288 449.777 475.398 448.358L474.883 447.537L479.475 444.659L480.15 445.736C480.723 446.651 481.151 447.21 481.434 447.414C481.725 447.613 482.042 447.605 482.384 447.391C482.751 447.16 482.952 446.91 482.984 446.639C483.012 446.36 482.841 445.925 482.471 445.335C481.962 444.523 481.549 444.073 481.232 443.986C480.907 443.904 479.522 443.927 477.077 444.054C475.019 444.153 473.606 443.961 472.839 443.477C472.066 442.985 471.379 442.26 470.779 441.303C469.927 439.943 469.479 438.83 469.437 437.964C469.388 437.089 469.682 436.208 470.317 435.322C470.961 434.43 471.851 433.627 472.988 432.914C474.117 432.207 475.166 431.752 476.134 431.55C477.106 431.333 477.949 431.329 478.663 431.536C479.385 431.739 479.915 432.014 480.252 432.362C480.598 432.705 481.039 433.304 481.575 434.159L482.194 435.147Z" fill="#2152FF" fill-opacity="0.04"/>
<path d="M221.398 181.696L237.158 226.901L227.161 243.618L193.099 255.494L174.766 248.654L159.006 203.449L150.08 204.088L144.313 187.549L179.809 175.174L185.575 191.713L181.383 195.647L193.914 231.591L197.626 233.017L210.193 228.636L212.213 225.211L199.682 189.267L194.063 188.753L188.297 172.215L223.13 160.07L228.896 176.609L221.398 181.696Z" fill="#2152FF" fill-opacity="0.04"/>
<path d="M289.864 166.729L284.892 159.559L266.814 165.862L271.081 178.101L289.269 171.759L293.805 184.77L275.616 191.111L280.229 204.342L291.36 202.934L297.088 219.362L256.301 233.582L250.574 217.154L257.962 212.105L244.547 173.626L235.621 174.264L229.854 157.726L296.546 134.475L305.81 161.046L289.826 166.619L289.864 166.729Z" fill="#2152FF" fill-opacity="0.04"/>
<path d="M371.288 143.535L364.316 130.632L356.049 133.514L369.849 173.096L379.877 172.073L385.605 188.501L344.819 202.721L339.091 186.293L347.471 180.898L333.671 141.316L325.404 144.199L327.966 158.639L311.982 164.212L301.104 133.009L376.283 106.798L387.161 138.001L371.288 143.535Z" fill="#2152FF" fill-opacity="0.04"/>
</g>
<path d="M864.61 392.415L856.819 346.836L747.051 365.6L754.842 411.179L778.184 407.189L777.914 386.62L790.058 384.544L799.925 442.267L787.059 447.713L791.157 471.685L850.772 461.494L846.674 437.522L832.572 436.686L822.704 378.963L834.848 376.887L841.426 396.378L864.61 392.415ZM970.146 367.394L963.514 328.597L866.205 345.231L870.33 369.361L882.855 370.467L892.426 426.454L880.979 431.658L885.077 455.63L982.543 438.969L975.938 400.329L952.597 404.319L951.41 416.372L924.915 420.901L921.626 401.66L948.121 397.131L944.886 378.205L918.391 382.734L915.344 364.913L941.84 360.384L946.962 371.357L970.146 367.394ZM1090.53 392.591L1055 312.958L991.283 323.85L995.408 347.98L1006.2 349.382L999.683 408.12L988.078 413.35L992.176 437.322L1039.49 429.234L1035.39 405.262L1027.12 403.429L1028.13 393.192L1051.95 389.121L1056.46 398.414L1048.64 402.997L1052.74 426.97L1108.73 417.399L1104.63 393.427L1090.53 392.591ZM1032.18 347.538L1043.51 371.086L1029.47 373.485L1032.18 347.538ZM1196.09 307.345L1171.57 293.032L1125.99 300.824L1105.02 325.347L1116.8 394.268L1145.8 411.061L1189.49 403.593C1195.85 396.175 1202.37 388.73 1208.71 381.154L1205.28 361.125L1175.79 366.166L1174.6 378.219L1153 381.912L1147.62 378.936L1139.31 330.36L1143.27 325.951L1165.03 322.231L1170.15 333.205L1199.65 328.163L1196.09 307.345ZM1327.24 291.256L1323.12 267.126L1271.23 275.995L1275.36 300.125L1282.99 302.066L1286.04 319.888L1259.39 324.444L1256.34 306.623L1263.05 302.228L1258.93 278.098L1207.04 286.968L1211.17 311.098L1223.69 312.203L1233.26 368.191L1221.82 373.394L1225.91 397.367L1277.8 388.497L1273.7 364.525L1265.91 362.61L1262.62 343.37L1289.27 338.813L1292.56 358.054L1286.01 362.422L1290.1 386.394L1341.99 377.524L1337.89 353.552L1325.37 352.447L1315.8 296.459L1327.24 291.256ZM1401.71 278.526L1397.59 254.396L1341.13 264.048L1345.25 288.178L1357.78 289.283L1367.35 345.271L1355.9 350.474L1360 374.446L1416.46 364.795L1412.36 340.822L1399.83 339.717L1390.26 283.729L1401.71 278.526ZM1483.71 239.674L1487.84 263.804L1500.36 264.909L1505.78 296.609L1462.89 243.232L1415.58 251.32L1419.7 275.45L1432.23 276.555L1441.8 332.543L1430.35 337.746L1434.45 361.719L1486.02 352.903L1481.93 328.931L1469.4 327.825L1463.52 293.444L1510.47 348.724L1542.33 343.278L1528.12 260.164L1539.57 254.961L1535.44 230.831L1483.71 239.674ZM1646.63 251.754L1643.08 230.936L1618.4 216.65L1571.56 224.657L1550.59 249.181L1562.37 318.101L1591.37 334.894L1620.55 329.907L1629.48 319.453L1634.11 327.588L1658.87 323.356L1647.71 258.063L1600.4 266.151L1603.63 285.076L1618.46 282.542L1621.05 297.682L1616.86 302.619L1598.56 305.746L1593.19 302.77L1584.88 254.194L1588.84 249.785L1612.18 245.795L1617.3 256.769L1646.63 251.754Z" fill="#2152FF" fill-opacity="0.04"/>
<defs>
<clipPath id="clip0_219_332">
<rect width="447" height="514" fill="white" transform="translate(25 159.157) rotate(-19.2208)"/>
</clipPath>
</defs>
</svg>
