<svg id="Слой_1" data-name="Слой 1" xmlns="http://www.w3.org/2000/svg" viewBox="0 0 91.66 95.89"><defs><style>.cls-1{fill:#95afc0;}.cls-2{fill:#fff;}</style></defs><path class="cls-1" d="M36.22,115.42a3.84,3.84,0,0,0,3.84,3.84h84a3.84,3.84,0,0,0,3.85-3.84v-62H36.22ZM97.55,65.3h10.27V75.57H97.55Zm0,13.84h10.27V89.41H97.55Zm0,13.84h10.27v10.27H97.55ZM83.71,65.3H94V75.57H83.71Zm0,13.84H94V89.41H83.71Zm0,13.84H94v10.27H83.71ZM69.87,65.3H80.13V75.57H69.87Zm0,13.84H80.13V89.41H69.87Zm0,13.84H80.13v10.27H69.87ZM56,65.3H66.29V75.57H56Zm0,13.84H66.29V89.41H56ZM56,93H66.29v10.27H56Z" transform="translate(-36.22 -23.37)"/><path class="cls-1" d="M125.88,31.21H112.12v9.7a3.47,3.47,0,0,1-3.48,3.48h-5.11a3.48,3.48,0,0,1-3.48-3.48v-9.7h-36v9.7a3.48,3.48,0,0,1-3.48,3.48H55.45A3.47,3.47,0,0,1,52,40.91v-9.7H38.22a2,2,0,0,0-2,2V49h91.66V33.21A2,2,0,0,0,125.88,31.21Z" transform="translate(-36.22 -23.37)"/><rect class="cls-2" x="19.8" y="41.93" width="10.27" height="10.27"/><rect class="cls-2" x="33.64" y="41.93" width="10.27" height="10.27"/><rect class="cls-2" x="47.48" y="41.93" width="10.27" height="10.27"/><rect class="cls-2" x="61.33" y="41.93" width="10.27" height="10.27"/><rect class="cls-2" x="19.8" y="55.77" width="10.27" height="10.27"/><rect class="cls-2" x="33.64" y="55.77" width="10.27" height="10.27"/><rect class="cls-2" x="47.48" y="55.77" width="10.27" height="10.27"/><rect class="cls-2" x="61.33" y="55.77" width="10.27" height="10.27"/><rect class="cls-2" x="19.8" y="69.61" width="10.27" height="10.27"/><rect class="cls-2" x="33.64" y="69.61" width="10.27" height="10.27"/><rect class="cls-2" x="47.48" y="69.61" width="10.27" height="10.27"/><rect class="cls-2" x="61.33" y="69.61" width="10.27" height="10.27"/><path class="cls-1" d="M56,28.1H60v3.11h4V26.85a3.48,3.48,0,0,0-3.48-3.48H55.45A3.47,3.47,0,0,0,52,26.85v4.36h4Z" transform="translate(-36.22 -23.37)"/><path class="cls-1" d="M55.45,44.39h5.12a3.48,3.48,0,0,0,3.48-3.48v-9.7H60v8.9H56v-8.9H52v9.7A3.47,3.47,0,0,0,55.45,44.39Z" transform="translate(-36.22 -23.37)"/><path class="cls-1" d="M104.06,28.1h4.06v3.11h4V26.85a3.48,3.48,0,0,0-3.48-3.48h-5.11a3.48,3.48,0,0,0-3.48,3.48v4.36h4Z" transform="translate(-36.22 -23.37)"/><path class="cls-1" d="M103.53,44.39h5.11a3.47,3.47,0,0,0,3.48-3.48v-9.7h-4v8.9h-4.06v-8.9h-4v9.7A3.48,3.48,0,0,0,103.53,44.39Z" transform="translate(-36.22 -23.37)"/><rect class="cls-2" x="19.76" y="4.73" width="4.06" height="3.1"/><rect class="cls-2" x="19.76" y="7.83" width="4.06" height="8.91"/><rect class="cls-2" x="67.84" y="4.73" width="4.06" height="3.1"/><rect class="cls-2" x="67.84" y="7.83" width="4.06" height="8.91"/></svg>