<svg width="19" height="19" viewBox="0 0 19 19" fill="none" xmlns="http://www.w3.org/2000/svg">
<path d="M5.61364 0C2.51857 0 0 2.51857 0 5.61364V13.3864C0 16.4814 2.51857 19 5.61364 19H13.3864C16.4814 19 19 16.4814 19 13.3864V5.61364C19 2.51857 16.4814 0 13.3864 0H5.61364ZM5.61364 0.863636H13.3864C16.0146 0.863636 18.1364 2.98538 18.1364 5.61364V13.3864C18.1364 16.0146 16.0146 18.1364 13.3864 18.1364H5.61364C2.98538 18.1364 0.863636 16.0146 0.863636 13.3864V5.61364C0.863636 2.98538 2.98538 0.863636 5.61364 0.863636ZM14.6818 3.45455C14.4528 3.45455 14.2331 3.54554 14.0711 3.7075C13.9092 3.86946 13.8182 4.08913 13.8182 4.31818C13.8182 4.54723 13.9092 4.7669 14.0711 4.92886C14.2331 5.09083 14.4528 5.18182 14.6818 5.18182C14.9109 5.18182 15.1305 5.09083 15.2925 4.92886C15.4545 4.7669 15.5455 4.54723 15.5455 4.31818C15.5455 4.08913 15.4545 3.86946 15.2925 3.7075C15.1305 3.54554 14.9109 3.45455 14.6818 3.45455ZM9.5 4.75C6.88176 4.75 4.75 6.88176 4.75 9.5C4.75 12.1182 6.88176 14.25 9.5 14.25C12.1182 14.25 14.25 12.1182 14.25 9.5C14.25 6.88176 12.1182 4.75 9.5 4.75ZM9.5 5.61364C11.6515 5.61364 13.3864 7.34851 13.3864 9.5C13.3864 11.6515 11.6515 13.3864 9.5 13.3864C7.34851 13.3864 5.61364 11.6515 5.61364 9.5C5.61364 7.34851 7.34851 5.61364 9.5 5.61364Z" fill="#4B6584"/>
</svg>
