<svg width="22" height="22" viewBox="0 0 22 22" fill="none" xmlns="http://www.w3.org/2000/svg">
<path d="M6.41488 0C2.87746 0 0 2.88012 0 6.41846V15.5851C0 19.1225 2.88012 22 6.41846 22H15.5851C19.1225 22 22 19.1199 22 15.5815V6.41488C22 2.87746 19.1199 0 15.5815 0H6.41488ZM17.4167 3.66667C17.9227 3.66667 18.3333 4.07733 18.3333 4.58333C18.3333 5.08933 17.9227 5.5 17.4167 5.5C16.9107 5.5 16.5 5.08933 16.5 4.58333C16.5 4.07733 16.9107 3.66667 17.4167 3.66667ZM11 5.5C14.0332 5.5 16.5 7.96675 16.5 11C16.5 14.0332 14.0332 16.5 11 16.5C7.96675 16.5 5.5 14.0332 5.5 11C5.5 7.96675 7.96675 5.5 11 5.5ZM11 7.33333C10.0275 7.33333 9.09491 7.71964 8.40728 8.40728C7.71964 9.09491 7.33333 10.0275 7.33333 11C7.33333 11.9725 7.71964 12.9051 8.40728 13.5927C9.09491 14.2804 10.0275 14.6667 11 14.6667C11.9725 14.6667 12.9051 14.2804 13.5927 13.5927C14.2804 12.9051 14.6667 11.9725 14.6667 11C14.6667 10.0275 14.2804 9.09491 13.5927 8.40728C12.9051 7.71964 11.9725 7.33333 11 7.33333Z" fill="#95AFC0"/>
</svg>
