<svg width="20" height="20" viewBox="0 0 20 20" fill="none" xmlns="http://www.w3.org/2000/svg">
<path d="M1.29721 3.25674C2.12148 2.29309 2.94574 1.52216 3.77001 1.1367C4.21384 0.879729 4.72109 1.00822 5.29173 1.32943C6.1794 2.48582 6.87686 3.51371 7.3841 4.54161C7.57431 4.92707 7.70112 5.37677 7.63772 5.89072C7.32069 6.79013 6.87686 7.43256 6.30621 7.94651C7.95475 10.195 9.8569 12.1866 12.0761 13.9212C12.8369 13.343 13.5344 12.8933 14.0416 12.829C14.5489 12.7005 15.0561 12.7648 15.5 12.8933C16.5778 13.4715 17.5923 14.1781 18.6702 14.9491C19.0506 15.463 19.114 16.0412 18.797 16.5551C18.3532 17.2618 17.7825 17.9043 17.0851 18.5467C16.3242 19.0606 15.5634 19.1249 14.8025 18.8037C8.84242 16.7479 4.15044 12.3793 1.107 4.79858C0.916781 4.15615 0.980186 3.6422 1.29721 3.25674Z" stroke="#4B6584" stroke-width="0.75" stroke-miterlimit="10"/>
</svg>
