<svg width="22" height="22" viewBox="0 0 22 22" fill="none" xmlns="http://www.w3.org/2000/svg">
<path d="M20 0H2C0.895 0 0 0.895 0 2V20C0 21.105 0.895 22 2 22H20C21.105 22 22 21.105 22 20V2C22 0.895 21.104 0 20 0ZM18.689 9.474C18.559 9.486 18.428 9.494 18.296 9.494C16.801 9.494 15.487 8.726 14.722 7.563C14.722 10.612 14.722 14.082 14.722 14.14C14.722 16.825 12.545 19.001 9.861 19.001C7.177 19 5 16.823 5 14.139C5 11.454 7.177 9.278 9.861 9.278C9.963 9.278 10.062 9.287 10.161 9.293V11.689C10.061 11.677 9.964 11.659 9.861 11.659C8.491 11.659 7.38 12.77 7.38 14.14C7.38 15.51 8.49 16.621 9.861 16.621C11.232 16.621 12.442 15.541 12.442 14.171C12.442 14.116 12.466 3.001 12.466 3.001H14.755C14.97 5.048 16.623 6.664 18.689 6.812V9.474Z" fill="#95AFC0"/>
</svg>
