<svg width="19" height="19" viewBox="0 0 19 19" fill="none" xmlns="http://www.w3.org/2000/svg">
<path d="M2.2619 0C1.01767 0 0 1.01767 0 2.2619V16.7381C0 17.9823 1.01767 19 2.2619 19H16.7381C17.9823 19 19 17.9823 19 16.7381V2.2619C19 1.01767 17.9823 0 16.7381 0H2.2619ZM2.2619 0.904762H16.7381C17.4943 0.904762 18.0952 1.50572 18.0952 2.2619V16.7381C18.0952 17.4943 17.4943 18.0952 16.7381 18.0952H2.2619C1.50572 18.0952 0.904762 17.4943 0.904762 16.7381V2.2619C0.904762 1.50572 1.50572 0.904762 2.2619 0.904762ZM9.97182 2.71429C9.852 2.7143 9.73707 2.76184 9.65226 2.84649C9.56745 2.93113 9.51968 3.04596 9.51944 3.16578C9.51944 3.16578 9.51447 5.37124 9.50972 7.5818C9.50732 8.68708 9.50443 9.7935 9.50265 10.6265C9.50087 11.4596 9.5 11.9867 9.5 12.0305C9.5 12.8517 8.75421 13.5228 7.9043 13.5228C7.06115 13.5228 6.38811 12.8489 6.38811 12.0058C6.38811 11.1626 7.06115 10.4896 7.9043 10.4896C7.93286 10.4896 7.99043 10.499 8.08896 10.5108C8.15251 10.5184 8.21695 10.5125 8.27803 10.4933C8.3391 10.4742 8.39543 10.4423 8.44328 10.3998C8.49113 10.3573 8.52942 10.3051 8.55561 10.2467C8.58181 10.1884 8.59531 10.1251 8.59524 10.0611V8.16053C8.59523 8.04545 8.55136 7.93469 8.47257 7.85081C8.39378 7.76694 8.28599 7.71623 8.17113 7.70903C8.10064 7.7046 8.01193 7.69578 7.9043 7.69578C5.52951 7.69578 3.59431 9.63098 3.59431 12.0058C3.59431 14.3806 5.52951 16.3158 7.9043 16.3158C10.279 16.3158 12.2143 14.3806 12.2143 12.0058V7.91225C12.8723 8.43855 13.6924 8.77195 14.5981 8.77195C14.7216 8.77195 14.8391 8.76463 14.9515 8.75428C15.0639 8.74391 15.1683 8.69195 15.2443 8.60859C15.3203 8.52523 15.3624 8.41648 15.3624 8.30366V6.19108C15.3625 6.07671 15.3192 5.96656 15.2413 5.8828C15.1635 5.79903 15.0568 5.74786 14.9427 5.73958C13.5201 5.63752 12.3861 4.52934 12.2381 3.11984C12.2266 3.00861 12.1742 2.90561 12.0911 2.83072C12.0081 2.75583 11.9002 2.71435 11.7884 2.71429H9.97182ZM10.4233 3.61905H11.4553C11.7841 5.11132 12.9502 6.24937 14.4576 6.53478V7.83096C13.4901 7.78183 12.6402 7.29914 12.1401 6.53832C12.0866 6.4569 12.0082 6.39492 11.9167 6.3616C11.8251 6.32828 11.7253 6.32541 11.6319 6.3534C11.5386 6.3814 11.4568 6.43876 11.3988 6.51697C11.3407 6.59518 11.3094 6.69006 11.3095 6.78748V12.0058C11.3095 13.8915 9.7901 15.411 7.9043 15.411C6.01856 15.411 4.49907 13.8915 4.49907 12.0058C4.49907 10.196 5.91085 8.75953 7.69048 8.64383V9.62812C6.4629 9.74235 5.48335 10.7496 5.48335 12.0058C5.48335 13.3377 6.57239 14.4276 7.9043 14.4276C9.22943 14.4276 10.4048 13.3844 10.4048 12.0305C10.4048 12.0526 10.4056 11.4613 10.4074 10.6283C10.4092 9.79527 10.4121 8.68884 10.4145 7.58357C10.4187 5.59902 10.4225 4.00321 10.4233 3.61905Z" fill="#4B6584"/>
</svg>
