<svg width="19" height="19" viewBox="0 0 19 19" fill="none" xmlns="http://www.w3.org/2000/svg">
<path d="M10.4929 0C9.14211 0 7.97527 0.411779 7.15625 1.22542C6.33723 2.03905 5.8913 3.23158 5.8913 4.69514V6.6087H3.41304C3.3035 6.60871 3.19845 6.65223 3.12099 6.72969C3.04353 6.80714 3.00001 6.9122 3 7.02174V10.3261C3.00001 10.4356 3.04353 10.5407 3.12099 10.6181C3.19845 10.6956 3.3035 10.7391 3.41304 10.7391H5.8913V18.587C5.89131 18.6965 5.93484 18.8016 6.01229 18.879C6.08975 18.9565 6.1948 19 6.30435 19H9.6087C9.71824 19 9.82329 18.9565 9.90075 18.879C9.97821 18.8016 10.0217 18.6965 10.0217 18.587V10.7391H12.913C13.0136 10.7391 13.1108 10.7024 13.1862 10.6359C13.2617 10.5693 13.3103 10.4775 13.3229 10.3777L13.7359 7.07337C13.7432 7.01523 13.7381 6.9562 13.7208 6.90019C13.7036 6.84419 13.6746 6.7925 13.6359 6.74855C13.5971 6.7046 13.5494 6.6694 13.496 6.64529C13.4426 6.62117 13.3847 6.6087 13.3261 6.6087H10.0217V4.95652C10.0217 4.49529 10.3866 4.13043 10.8478 4.13043H13.3261C13.4356 4.13042 13.5407 4.0869 13.6181 4.00944C13.6956 3.93199 13.7391 3.82693 13.7391 3.71739V0.555834C13.739 0.455735 13.7025 0.359088 13.6365 0.283857C13.5705 0.208627 13.4794 0.159931 13.3801 0.146824C13.0151 0.0983957 11.6975 0 10.4929 0ZM10.4929 0.826087C11.4998 0.826087 12.4732 0.90665 12.913 0.947903V3.30435H10.8478C9.94023 3.30435 9.19565 4.04893 9.19565 4.95652V7.02174C9.19566 7.13128 9.23918 7.23633 9.31664 7.31379C9.3941 7.39125 9.49915 7.43477 9.6087 7.43478H12.8582L12.5484 9.91304H9.6087C9.49915 9.91305 9.3941 9.95657 9.31664 10.034C9.23918 10.1115 9.19566 10.2165 9.19565 10.3261V18.1739H6.71739V10.3261C6.71738 10.2165 6.67386 10.1115 6.5964 10.034C6.51894 9.95657 6.41389 9.91305 6.30435 9.91304H3.82609V7.43478H6.30435C6.41389 7.43477 6.51894 7.39125 6.5964 7.31379C6.67386 7.23633 6.71738 7.13128 6.71739 7.02174V4.69514C6.71739 3.39627 7.09752 2.44807 7.73871 1.8111C8.37989 1.17413 9.30712 0.826087 10.4929 0.826087Z" fill="#4B6584"/>
</svg>
