<svg width="22" height="22" viewBox="0 0 22 22" fill="none" xmlns="http://www.w3.org/2000/svg">
<path d="M16.3976 22C15.5271 21.9298 14.1657 21.3302 12.986 20.5933C8.27872 17.6592 4.30369 13.688 1.36424 8.98283C0.863882 8.1092 0.482164 7.17275 0.22917 6.19822C-0.367061 4.2206 0.22917 2.52687 1.67989 1.1234C3.36656 -0.512913 4.31989 -0.375757 5.50597 1.62738C5.82368 2.23949 6.17824 2.83174 6.56771 3.40085C7.84307 5.07225 8.34046 6.68943 6.78771 8.53308C6.50394 8.85205 6.6251 9.9525 6.96307 10.3353C8.40104 11.962 9.98887 13.4516 11.5225 14.9922C12.2558 15.729 13.0593 15.7099 13.799 15.0783C15.2561 13.8312 16.6144 14.0257 18.0747 15.1071C19.0402 15.765 20.0442 16.3647 21.0813 16.9029C22.0665 17.4611 22.2387 18.233 21.6967 19.1771C20.6349 20.9761 19.1109 21.9553 16.3976 22Z" fill="#95AFC0"/>
</svg>
